<?xml version="1.0" standalone="no"?>
<!DOCTYPE svg PUBLIC "-//W3C//DTD SVG 20010904//EN"
 "http://www.w3.org/TR/2001/REC-SVG-20010904/DTD/svg10.dtd">
<svg version="1.0" xmlns="http://www.w3.org/2000/svg"
 width="256.000000pt" height="256.000000pt" viewBox="0 0 256.000000 256.000000"
 preserveAspectRatio="xMidYMid meet">
<metadata>
Created by potrace 1.11, written by Peter Selinger 2001-2013
</metadata>
<g transform="translate(0.000000,256.000000) scale(0.100000,-0.100000)"
fill="#000000" stroke="none">
<path d="M142 2539 c-46 -14 -109 -80 -122 -128 -7 -27 -10 -385 -8 -1153 l3
-1113 24 -38 c13 -21 42 -50 64 -65 l41 -27 1125 -2 1126 -3 45 23 c27 14 57
41 75 68 l30 44 0 1130 c0 1117 0 1130 -20 1169 -12 21 -40 53 -64 70 l-43 31
-1121 2 c-690 1 -1135 -2 -1155 -8z"/>
</g>
</svg>
