<?xml version="1.0" encoding="utf-8"?>
<!-- Generator: Adobe Illustrator 21.0.0, SVG Export Plug-In . SVG Version: 6.00 Build 0)  -->
<svg version="1.1" id="Layer_1" xmlns="http://www.w3.org/2000/svg" xmlns:xlink="http://www.w3.org/1999/xlink" x="0px" y="0px"
	 viewBox="0 0 76.4 67.8" style="enable-background:new 0 0 76.4 67.8;" xml:space="preserve">
<style type="text/css">
	.st0{fill:none;}
	.st1{fill:#FFFFFF;}
</style>
<title>icons</title>
<g>
	<path class="st0" d="M47.4,63.4l14.8-8L74,63.2v-29c-0.2,0.1-0.3,0.2-0.4,0.4c-1.6,1.7-2.3,5.3-1.9,9.7c0.3,3.9-0.2,6.3-1.6,7.9
		c-1.7,1.9-4.4,2-7.9,2c-1.4,0.1-2.8-0.5-3.8-1.5c-2-2.1-1.8-5.7-1.6-9.2c0.1-1.2,0.1-2.2,0.1-3.2c0-0.5-0.1-1-0.4-1.4
		c-0.6-0.6-2.1-0.5-3.6-0.5c-1.7,0.2-3.5,0-5.1-0.6c-2.6-1.1-3.1-7.6-2.3-11.6c0.9-5,3.4-5.7,4.8-5.7c1.2,0,2.4,0,3.6,0
		c3.2,0.1,6.6,0.1,7.7-0.9c0.3-0.3,0.4-0.6,0.4-1c0-0.2-0.1-0.4-0.2-0.6c-1.2-1.1-5.5-0.7-8.7-0.4c-1.6,0.1-3.1,0.3-4.5,0.3
		c-1.6,0.1-3.1-0.5-4.2-1.7c-1.4-1.8-1.4-4.4-1.3-5.8L33,4.4v13.3h-2.5V4.3l-4,2.2c0.2,2.7,0.4,8-1.9,10.4c-0.8,0.9-1.9,1.3-3.1,1.2
		L19.9,18c-1.8-0.1-3.3-0.2-3.8,0.2c-0.2,0.2-0.5,0.8-0.6,2.2c-0.1,2.9-0.1,6.1,1.2,7.4c0.6,0.6,1.4,0.8,2.2,0.7
		c3.2-0.1,5,0.4,6.2,1.7c1.2,1.3,1.5,2.9,1.4,5.4c-0.3,4.5-7.9,20.9-11.7,20.9h-0.2c-3.4,0-4.2-1.6-4.8-9.3c-0.3-4.3-3.3-8-7.4-9.2
		v18L16.1,64l14.4-7.8V41.4H33l0,14.8l11.9,7.1v-10h2.5V63.4z"/>
	<path class="st0" d="M16.1,12.3L2.5,4.4v10c1.7-0.2,4-0.2,5.5,0.9C9,16,9.6,17.1,9.6,18.2c0,0.6,0.1,1.2,0.2,1.8
		c0.4,4.5,0.8,9.1-1.9,10.2c-1.2,0.4-2.5,0.6-3.8,0.6c-0.6,0-1.1,0-1.6-0.1v4.8C8,36.7,12,41.4,12.4,47c0.5,7,1,7,2.3,7h0.2
		c1.4-0.5,8.8-13.4,9.2-18.6c0.1-1.8-0.1-2.9-0.7-3.5c-0.6-0.6-2-1-4.3-0.9c-1.5,0.1-2.9-0.4-4-1.5c-2.1-2.1-2.1-5.9-1.9-9.2
		c0.1-2,0.5-3.2,1.4-4c1.3-1.2,3.1-1,5.6-0.8l1.6,0.1c0.4,0,0.8-0.1,1.1-0.4c1.1-1.2,1.4-4.5,1.3-7.3L16.1,12.3z"/>
	<path class="st0" d="M48.3,15.4c1.3,0,2.7-0.1,4.3-0.3c4.5-0.4,8.7-0.8,10.7,1c0.7,0.6,1,1.5,1,2.5c0,1.1-0.4,2.1-1.1,2.8
		c-1.8,1.8-5.3,1.7-9.5,1.6c-1.2,0-2.3,0-3.5,0c-1.5,0-2.1,2.6-2.3,3.7c-0.8,4.2,0.2,8.4,0.9,8.8c1.3,0.4,2.7,0.5,4.1,0.4l1.3,0
		c1.5-0.2,3,0.2,4.2,1.2c0.8,0.8,1.2,2,1.2,3.2c0,1.1,0,2.2-0.1,3.3c-0.2,2.9-0.3,6.2,0.9,7.5c0.5,0.5,1.3,0.8,2,0.7
		c2.9,0,5-0.1,6-1.2c0.9-0.9,1.2-2.9,0.9-6c-0.4-5.2,0.5-9.3,2.6-11.6c0.6-0.7,1.4-1.2,2.3-1.5V11.5L62.1,3.6l-16,8.7l-0.7-0.4
		c0,1,0.2,1.9,0.8,2.7C46.7,15.2,47.5,15.5,48.3,15.4z"/>
	<path class="st0" d="M6.9,27.9c1-0.4,0.5-5.7,0.4-7.6v-0.2c0-0.6-0.1-1.1-0.1-1.7c0-0.4-0.2-0.8-0.5-1.1c-0.8-0.6-2.6-0.6-4.1-0.4
		l0,11.3C4,28.4,5.5,28.3,6.9,27.9z"/>
	<path class="st1" d="M62.2,0.7L46.2,9.4L31.8,0.7L16.1,9.4L0,0v57.6l16,9.3l15.7-8.5L46.1,67l15.9-8.6l14.4,9.5V10.2L62.2,0.7z
		 M44.9,63.3L33,56.2l0-14.8h-2.5v14.8L16.1,64L2.5,56.1v-18c4.2,1.2,7.1,4.9,7.4,9.2c0.6,7.8,1.4,9.3,4.8,9.3h0.2
		c3.8,0,11.4-16.5,11.7-20.9c0.2-2.5-0.1-4.2-1.4-5.4C24,29,22.2,28.5,19,28.6c-0.8,0.1-1.6-0.2-2.2-0.7c-1.3-1.3-1.4-4.5-1.2-7.4
		c0.1-1.5,0.3-2,0.6-2.2c0.5-0.4,1.9-0.3,3.8-0.2l1.7,0.1c1.2,0.1,2.3-0.4,3.1-1.2c2.2-2.4,2.1-7.7,1.9-10.4l4-2.2v13.4H33V4.4
		l9.9,5.9c-0.1,1.4-0.2,4,1.3,5.8c1,1.2,2.6,1.8,4.2,1.7c1.4,0,2.9-0.2,4.5-0.3c3.2-0.3,7.6-0.7,8.7,0.4c0.2,0.2,0.3,0.4,0.2,0.6
		c0,0.4-0.1,0.7-0.4,1c-1,1-4.4,1-7.7,0.9c-1.2,0-2.4,0-3.6,0c-1.4,0-3.8,0.8-4.8,5.7c-0.8,4-0.2,10.5,2.3,11.6
		c1.6,0.5,3.4,0.7,5.1,0.6c1.5,0,3-0.1,3.6,0.5c0.3,0.4,0.5,0.9,0.4,1.4c0,1,0,2.1-0.1,3.2c-0.2,3.5-0.4,7.2,1.6,9.2
		c1,1,2.4,1.5,3.8,1.5c3.5,0,6.2-0.1,7.9-2c1.4-1.5,1.9-4,1.6-7.9c-0.4-4.4,0.3-7.9,1.9-9.7c0.1-0.1,0.3-0.3,0.4-0.4v29l-11.7-7.8
		l-14.8,8V53.3h-2.5V63.3z M22.9,15.1c-0.3,0.3-0.7,0.5-1.1,0.4l-1.6-0.1c-2.5-0.2-4.3-0.3-5.6,0.8c-0.9,0.8-1.3,2-1.4,4
		c-0.1,3.4-0.1,7.1,1.9,9.2c1.1,1,2.5,1.6,4,1.5c2.3-0.1,3.8,0.3,4.3,0.9c0.6,0.6,0.8,1.8,0.7,3.5c-0.4,5.2-7.8,18.1-9.2,18.6h-0.2
		c-1.3,0-1.8,0-2.3-7C12,41.4,8,36.7,2.5,35.5v-4.8c0.5,0.1,1,0.1,1.6,0.1c1.3,0,2.6-0.2,3.8-0.6c2.7-1.1,2.3-5.7,1.9-10.2
		c-0.1-0.6-0.2-1.2-0.2-1.8C9.6,17.1,9,16,8,15.3c-1.5-1.1-3.9-1.1-5.5-0.9v-10l13.6,7.9l8-4.5C24.3,10.6,24,13.9,22.9,15.1z
		 M2.5,16.9c1.5-0.2,3.2-0.2,4.1,0.4c0.3,0.3,0.5,0.6,0.5,1.1c0,0.5,0.1,1.1,0.1,1.7v0.2c0.2,2,0.6,7.2-0.4,7.6
		c-1.4,0.4-2.9,0.5-4.4,0.3L2.5,16.9z M46.1,12.3l16-8.7l11.8,7.9v19.9c-0.9,0.3-1.6,0.8-2.3,1.5c-2.1,2.3-3,6.4-2.6,11.6
		c0.3,3.1,0,5.1-0.9,6c-1,1.1-3.1,1.2-6,1.2c-0.7,0.1-1.5-0.2-2-0.7c-1.2-1.3-1-4.5-0.9-7.5c0.1-1.2,0.1-2.3,0.1-3.3
		c0.1-1.2-0.4-2.3-1.2-3.2c-1.2-0.9-2.7-1.3-4.2-1.2l-1.3,0c-1.4,0.1-2.7,0-4.1-0.4c-0.7-0.4-1.7-4.6-0.9-8.8
		c0.2-1.1,0.9-3.7,2.3-3.7c1.2,0,2.3,0,3.5,0c4.1,0.1,7.7,0.2,9.5-1.6c0.7-0.7,1.1-1.8,1.1-2.8c0-0.9-0.3-1.8-1-2.5
		c-2-1.8-6.2-1.4-10.7-1c-1.5,0.1-3,0.3-4.3,0.3c-0.8,0.1-1.6-0.2-2.2-0.8c-0.5-0.8-0.8-1.8-0.8-2.7L46.1,12.3z"/>
</g>
</svg>
