<svg xmlns="http://www.w3.org/2000/svg" viewBox="0 0 45.64 65.17"><defs><style>.cls-1{fill:#f9cc69;}.cls-2{fill:#fbba00;}</style></defs><title>icon</title><g id="locator"><path class="cls-1" d="M23.32.93h-1C10.93.93.55,9,.56,21.75c0,12.55,22.26,42.5,22.26,42.5S45.07,34.3,45.08,21.75C45.09,9,34.71.93,23.32.93Zm-.5,26.51a5.12,5.12,0,1,1,5.12-5.12A5.12,5.12,0,0,1,22.82,27.44Z"/><path class="cls-2" d="M22.82,65.08l-.4-.54C21.51,63.31.08,34.32.06,21.75A20.58,20.58,0,0,1,6.83,6.2,23,23,0,0,1,22.32.43h1A23,23,0,0,1,38.81,6.2a20.58,20.58,0,0,1,6.77,15.55c0,12.57-21.44,41.56-22.36,42.79Zm-.5-63.66A22,22,0,0,0,7.5,6.94,19.59,19.59,0,0,0,1.06,21.75c0,11.32,18.76,37.53,21.76,41.65,3-4.12,21.75-30.33,21.76-41.65A19.59,19.59,0,0,0,38.14,6.94,22,22,0,0,0,23.32,1.43Zm.5,26.51a5.62,5.62,0,1,1,5.62-5.62A5.63,5.63,0,0,1,22.82,27.94Zm0-10.24a4.62,4.62,0,1,0,4.62,4.62A4.62,4.62,0,0,0,22.82,17.7Z"/><circle class="cls-2" cx="6.13" cy="26.76" r="0.52"/><circle class="cls-2" cx="39.33" cy="26.76" r="0.6"/><circle class="cls-2" cx="4.89" cy="20.8" r="0.52"/><circle class="cls-2" cx="6.16" cy="14.99" r="0.52"/><circle class="cls-2" cx="9.59" cy="10.01" r="0.52"/><circle class="cls-2" cx="15.46" cy="5.88" r="0.52"/><circle class="cls-2" cx="22.82" cy="4.92" r="0.52"/><circle class="cls-2" cx="30.48" cy="5.88" r="0.52"/><circle class="cls-2" cx="40.66" cy="20.8" r="0.6"/><circle class="cls-2" cx="39.25" cy="14.92" r="0.6"/><circle class="cls-2" cx="35.66" cy="10.01" r="0.6"/></g></svg>