<svg xmlns="http://www.w3.org/2000/svg" viewBox="0 0 99.12 94.01"><defs><style>.cls-1{fill:#6884ad;}.cls-2{fill:#385188;}.cls-3,.cls-4{fill:#fff;}.cls-4{fill-rule:evenodd;}</style></defs><title>parking</title><g id="locator"><circle class="cls-1" cx="49.56" cy="47" r="42.42"/><path class="cls-2" d="M49.56,90.43A43.43,43.43,0,1,1,93,47,43.47,43.47,0,0,1,49.56,90.43Zm0-84.85A41.43,41.43,0,1,0,91,47,41.47,41.47,0,0,0,49.56,5.58Z"/><path class="cls-3" d="M43,53.71V70.89H32.38V23.12h18c9.7,0,16.37,6.4,16.37,15.29S60.07,53.71,50.37,53.71Zm6.27-9.16c4,0,6.8-2.36,6.8-6.06s-2.76-6.13-6.8-6.13h-6.2V44.55Z"/><path class="cls-4" d="M60.37,62.43c-.34,0-.62,0-.9,0a.57.57,0,0,1-.52-.25c-.33-.42-.67-.84-1-1.28l-1.06,1.3,1.91,1.34,1.59-1.12m-8.2,3a2.6,2.6,0,0,0,3.13,4.16A2.52,2.52,0,0,0,56,66.34l-1.43,1-.54.38c-.26.19-.47.19-.6,0s-.07-.4.2-.59l1.79-1.27.17-.13a2.57,2.57,0,0,0-3.46-.3M61,68.53A2.6,2.6,0,1,0,62.92,65l.43,1.26.38,1.1c.09.26,0,.42-.18.51s-.39,0-.48-.28c-.26-.73-.51-1.47-.77-2.2l-.06-.15A2.6,2.6,0,0,0,61,68.53m-5.62,1.93a3.32,3.32,0,0,1-4.22-.8,3.37,3.37,0,0,1,.25-4.45,3.12,3.12,0,0,1,2-1,3.3,3.3,0,0,1,2.78,1.11l.92-.65c-.57-.29-1.08-.54-1.58-.82a2.79,2.79,0,0,1-.69-.53A1.05,1.05,0,0,1,54.71,62c.29-.55.53-1.13.81-1.69a14.26,14.26,0,0,1,.84-1.53,1.2,1.2,0,0,1,2,.07c.46.76,1,1.51,1.43,2.27a.51.51,0,0,0,.36.25c.47.1.93.22,1.4.31a.41.41,0,0,1,.34.32c.26.77.53,1.53.8,2.31a3.32,3.32,0,0,1,2.62.51,3.25,3.25,0,0,1,1.4,2.28,3.31,3.31,0,0,1-6.21,2A3.36,3.36,0,0,1,62,64.54l-.66-1.91-2.11,1.49a1.69,1.69,0,0,1,.27,1.49,11.65,11.65,0,0,1-1.08,3,.37.37,0,0,1-.47.24c-.19-.07-.24-.25-.19-.51.13-.69.27-1.38.38-2.08a1,1,0,0,0-.39-1.11L56.67,66a3.35,3.35,0,0,1-1.26,4.5"/><path class="cls-4" d="M57.17,56.79a1.35,1.35,0,1,0,1.36-1.36,1.35,1.35,0,0,0-1.36,1.36"/></g></svg>