<?xml version="1.0" encoding="UTF-8"?>
<svg width="12px" height="12px" viewBox="0 0 12 12" version="1.1" xmlns="http://www.w3.org/2000/svg" xmlns:xlink="http://www.w3.org/1999/xlink">
    <!-- Generator: Sketch 45.2 (43514) - http://www.bohemiancoding.com/sketch -->
    <title>Combined Shape</title>
    <desc>Created with Sketch.</desc>
    <defs></defs>
    <g id="Symbols" stroke="none" stroke-width="1" fill="none" fill-rule="evenodd">
        <g id="X" fill="#FFFFFF">
            <path d="M4.58578644,6 L0.343762106,10.2420243 C-0.0495595335,10.635346 -0.0473785412,11.26633 0.343145751,11.6568542 C0.736392706,12.0501012 1.36711097,12.0471026 1.75797567,11.6562379 L6,7.41421356 L10.2420243,11.6562379 C10.635346,12.0495595 11.26633,12.0473785 11.6568542,11.6568542 C12.0501012,11.2636073 12.0471026,10.632889 11.6562379,10.2420243 L7.41421356,6 L11.6562379,1.75797567 C12.0495595,1.36465403 12.0473785,0.733670042 11.6568542,0.343145751 C11.2636073,-0.0501012048 10.632889,-0.0471025895 10.2420243,0.343762106 L6,4.58578644 L1.75797567,0.343762106 C1.36465403,-0.0495595335 0.733670042,-0.0473785412 0.343145751,0.343145751 C-0.0501012048,0.736392706 -0.0471025895,1.36711097 0.343762106,1.75797567 L4.58578644,6 Z" id="Combined-Shape"></path>
        </g>
    </g>
</svg>