<?xml version="1.0" encoding="UTF-8"?>
<svg width="117px" height="111px" viewBox="0 0 117 111" version="1.1" xmlns="http://www.w3.org/2000/svg" xmlns:xlink="http://www.w3.org/1999/xlink">
    <!-- Generator: Sketch 45.2 (43514) - http://www.bohemiancoding.com/sketch -->
    <title>Group 2</title>
    <desc>Created with Sketch.</desc>
    <defs></defs>
    <g id="Symbols" stroke="none" stroke-width="1" fill="none" fill-rule="evenodd">
        <g id="BIKE-NEW" fill="#FFFFFF">
            <g id="Group-2">
                <path d="M70.9239817,50.4010042 C68.4710175,50.4010042 66.4848396,50.3408003 64.5038848,50.4199726 C62.9044961,50.4837502 61.7628218,49.9237717 60.7772926,48.6372232 C58.4469355,45.5959655 56.000569,42.6437766 53.4808034,39.505478 C50.8439288,42.7344948 48.3205893,45.8244104 45.8577287,48.840102 C50.4274499,52.0509752 54.8938075,55.1889989 59.5127364,58.4345098 C63.1409131,55.8803812 66.8408396,53.2756703 70.9239817,50.4010042 M12.1872704,72.014194 C4.19087671,78.0791156 2.5587745,89.6946141 8.61627361,97.9046078 C14.664426,106.101681 26.3593717,107.861064 34.5696402,101.807138 C43.4281314,95.2751556 43.5284711,83.7627459 39.8263454,78.4024021 C36.4169919,80.8078079 33.0062639,83.2118392 29.598285,85.6194443 C28.3144855,86.5266259 27.0392081,87.4453535 25.7551337,88.3522602 C23.8692955,89.6844427 22.4136814,89.6855423 21.4539932,88.3635312 C20.4758865,87.016504 20.9883066,85.5045346 22.8942128,84.152834 C27.1673131,81.1220226 31.4442621,78.0969843 35.7179123,75.0669977 C36.0959046,74.7986918 36.4618012,74.513342 36.9343603,74.1606407 C31.9624552,67.9970289 20.6433027,65.6009698 12.1872704,72.014194 M75.616035,94.0620063 C79.3396032,102.991697 89.5772853,107.581212 98.7428436,104.429993 C108.024961,101.238638 113.283041,91.4930329 110.779494,82.1204722 C108.228665,72.5694992 99.0026274,66.7165283 89.1709779,68.6155618 C90.20489,71.6364766 91.2267064,74.6293513 92.253746,77.6208514 C93.1584534,80.2558016 94.0774559,82.8855287 94.9730916,85.523228 C95.5971226,87.3598585 95.1583766,88.5512903 93.6747223,89.1500302 C92.253746,89.7232041 90.8734554,88.9872873 90.2271572,87.1641272 C88.3660603,81.9175934 86.5582948,76.6520914 84.7263377,71.3951113 C84.6128026,71.0688008 84.4712272,70.7526618 84.2908905,70.3023698 C75.6509477,74.6422717 71.8759726,85.0927291 75.616035,94.0620063 M35.410845,107.856665 C25.2880726,113.590878 12.2436256,111.128017 5.17475641,102.094412 C-2.33615762,92.4961559 -1.61371117,79.0563976 6.97015132,70.2174246 C10.9196902,66.1507768 15.7780602,63.7002868 21.4372241,63.2302018 C29.2934169,62.5778557 35.8856034,65.4426253 41.3067009,71.1633676 C43.4438009,69.6472747 45.4516962,68.2232745 47.868373,66.5087012 C43.8193191,64.4400522 40.1026234,62.6735222 36.5261286,60.6582044 C34.7367816,59.6498583 32.980423,58.3916249 31.6028814,56.8862532 C29.0699204,54.1179747 28.4950971,50.9986445 30.4056766,47.4375442 C32.5177604,43.500376 34.202644,39.3364123 36.217412,35.3442634 C38.0966524,31.6204203 39.9008443,27.8149308 42.2136076,24.3643418 C45.3796715,19.6403997 53.1935292,19.7915966 56.2977398,24.9006786 C59.6202237,30.3690594 63.1829734,35.6909167 66.5695099,41.1213609 C67.215808,42.1577472 68.0067055,42.6440515 69.1514037,42.8859666 C72.5046769,43.5946679 75.8260613,44.4595144 79.1897808,45.1088365 C80.6085578,45.3829153 81.2097718,46.1147085 81.6416453,47.4073049 C83.4780008,52.9009768 85.4105726,58.3622102 87.3467181,63.9463255 C94.1461818,62.6718727 100.444771,63.6442065 106.091565,67.5843987 C111.781518,71.5548303 115.105926,77.0518011 116.118945,83.9043212 C117.760944,95.0123478 110.640943,106.235009 99.8660994,109.610275 C88.8248743,113.069111 76.9089062,108.031779 71.6277347,98.0021985 C66.4969353,88.2585181 68.415487,72.7957448 82.5034678,65.4956817 C80.9444899,60.9977103 79.3791893,56.4804956 77.7657805,51.8255543 C72.6140885,55.4768229 67.6842436,58.9708466 62.6713779,62.5236997 C65.4457043,65.7895536 65.2230324,69.4927789 64.5819574,73.2179966 C63.2582969,80.9092473 60.2019196,88.0003837 56.8579931,94.9799092 C56.0857891,96.5913937 54.8432252,97.1901335 53.5190149,96.7263713 C52.1615414,96.2510631 51.7728278,94.9700127 52.1368,93.102868 C53.1022612,88.1474571 54.1012606,83.1923211 54.8314044,78.1995233 C55.2693257,75.205549 55.0389565,72.2099254 52.0108942,70.2655327 C49.5032243,72.0447083 46.9958293,73.823609 44.4136605,75.6552912 C51.3052169,89.5249986 44.8172189,102.52876 35.410845,107.856665" id="Fill-1"></path>
                <path d="M47.9780046,10.0313945 C47.9846023,15.3689213 52.2577026,19.6964525 57.5721375,19.7475846 C62.9212102,19.7989915 67.3012481,15.4035591 67.2941006,9.99125856 C67.2875029,4.64658428 63.0295222,0.331973494 57.7062904,0.275343368 C52.3550185,0.218438339 47.9714069,4.61442056 47.9780046,10.0313945" id="Fill-4"></path>
            </g>
        </g>
    </g>
</svg>