<?xml version="1.0" encoding="UTF-8"?>
<svg width="100px" height="21px" viewBox="0 0 100 21" version="1.1" xmlns="http://www.w3.org/2000/svg" xmlns:xlink="http://www.w3.org/1999/xlink">
    <!-- Generator: Sketch 45.2 (43514) - http://www.bohemiancoding.com/sketch -->
    <title>Fill 1</title>
    <desc>Created with Sketch.</desc>
    <defs></defs>
    <g id="Portrait_v4" stroke="none" stroke-width="1" fill="none" fill-rule="evenodd">
        <g id="NAV_v2_1" transform="translate(-275.000000, -556.000000)" fill="#FFFFFF">
            <g id="Group-2" transform="translate(0.000000, 500.000000)">
                <path d="M324.780115,95.3613968 C330.524759,95.3613968 335.198833,100.034942 335.198833,105.780115 C335.198833,111.525288 330.524759,116.198833 324.780115,116.198833 L314.511763,116.198833 C315.323955,111.257911 319.612583,107.472799 324.780115,107.472799 C325.713553,107.472799 326.472799,106.713024 326.472799,105.780115 C326.472799,104.847206 325.713553,104.087431 324.780115,104.087431 C319.034942,104.087431 314.361397,99.4138854 314.361397,93.6687124 C314.361397,87.924069 319.034942,83.2505236 324.780115,83.2505236 C325.713553,83.2505236 326.472799,82.4907482 326.472799,81.5578393 C326.472799,80.6249303 325.713553,79.8651549 324.780115,79.8651549 C319.034942,79.8651549 314.361397,75.1916095 314.361397,69.4464366 C314.361397,63.7012637 319.034942,59.0277183 324.780115,59.0277183 C325.713553,59.0277183 326.472799,58.2684723 326.472799,57.3360929 C326.472799,56.4026545 325.713553,55.6428791 324.780115,55.6428791 C319.034942,55.6428791 314.361397,50.9693337 314.361397,45.2246902 C314.361397,39.4789879 319.034942,34.8054425 324.780115,34.8054425 C325.713553,34.8054425 326.472799,34.0461965 326.472799,33.113817 C326.472799,32.1803787 325.713553,31.4206032 324.780115,31.4206032 C319.034942,31.4206032 314.361397,26.7470578 314.361397,21.0024144 C314.361397,18.5923114 316.315105,16.6386032 318.724149,16.6386032 C321.134252,16.6386032 323.087431,18.5923114 323.087431,21.0024144 C323.087431,21.9347938 323.846677,22.6945693 324.780115,22.6945693 C330.524759,22.6945693 335.198833,27.3681147 335.198833,33.113817 C335.198833,38.857931 330.524759,43.5314764 324.780115,43.5314764 C323.846677,43.5314764 323.087431,44.2912519 323.087431,45.2246902 C323.087431,46.1570697 323.846677,46.9168451 324.780115,46.9168451 C330.524759,46.9168451 335.198833,51.5903905 335.198833,57.3360929 C335.198833,63.0802069 330.524759,67.7537523 324.780115,67.7537523 C323.846677,67.7537523 323.087431,68.5135277 323.087431,69.4464366 C323.087431,70.3793455 323.846677,71.1391209 324.780115,71.1391209 C330.524759,71.1391209 335.198833,75.8126664 335.198833,81.5578393 C335.198833,87.3030122 330.524759,91.9765576 324.780115,91.9765576 C323.846677,91.9765576 323.087431,92.7358035 323.087431,93.6687124 C323.087431,94.6016214 323.846677,95.3613968 324.780115,95.3613968" id="Fill-1" transform="translate(324.780115, 66.418718) scale(-1, 1) rotate(90.000000) translate(-324.780115, -66.418718) "></path>
            </g>
        </g>
    </g>
</svg>