<svg xmlns="http://www.w3.org/2000/svg" viewBox="0 0 84.98 84.98"><defs><style>.cls-1{fill:#f9f6ed;}</style></defs><title>center</title><g id="locator"><path class="cls-1" d="M77.18,39a34.7,34.7,0,0,0-7.69-18.51l-6.4,6.4a25.73,25.73,0,0,1,5,12.11H46V16.87a25.73,25.73,0,0,1,12.11,5h0l6.4-6.4A34.71,34.71,0,0,0,46,7.8V0H39V7.8a34.7,34.7,0,0,0-18.51,7.69l6.41,6.41a25.73,25.73,0,0,1,12.11-5V39H16.87a25.73,25.73,0,0,1,5-12.11h0l-6.41-6.41A34.7,34.7,0,0,0,7.8,39H0v7H7.8a34.71,34.71,0,0,0,7.69,18.51l6.4-6.4a25.73,25.73,0,0,1-5-12.11H39v22.1a25.73,25.73,0,0,1-12.11-5l-6.4,6.4A34.7,34.7,0,0,0,39,77.18V85h7v-7.8a34.71,34.71,0,0,0,18.51-7.69l-6.4-6.4a25.73,25.73,0,0,1-12.11,5V46h22.1a25.73,25.73,0,0,1-4.94,12,.17.17,0,0,0,0,.22l6.3,6.3A34.71,34.71,0,0,0,77.18,46H85V39Z"/></g></svg>