<?xml version="1.0" encoding="UTF-8"?>
<svg width="100px" height="21px" viewBox="0 0 100 21" version="1.1" xmlns="http://www.w3.org/2000/svg" xmlns:xlink="http://www.w3.org/1999/xlink">
    <!-- Generator: Sketch 45.2 (43514) - http://www.bohemiancoding.com/sketch -->
    <title>Fill 1</title>
    <desc>Created with Sketch.</desc>
    <defs></defs>
    <g id="Portrait_v4" stroke="none" stroke-width="1" fill="none" fill-rule="evenodd">
        <g id="NAV_v2_1" transform="translate(0.000000, -556.000000)" fill="#FFFFFF">
            <g id="Group-2" transform="translate(0.000000, 500.000000)">
                <path d="M49.7801151,95.3613968 C55.5247585,95.3613968 60.1988334,100.034942 60.1988334,105.780115 C60.1988334,111.525288 55.5247585,116.198833 49.7801151,116.198833 L39.5117635,116.198833 C40.3239555,111.257911 44.6125833,107.472799 49.7801151,107.472799 C50.7135535,107.472799 51.4727994,106.713024 51.4727994,105.780115 C51.4727994,104.847206 50.7135535,104.087431 49.7801151,104.087431 C44.0349422,104.087431 39.3613968,99.4138854 39.3613968,93.6687124 C39.3613968,87.924069 44.0349422,83.2505236 49.7801151,83.2505236 C50.7135535,83.2505236 51.4727994,82.4907482 51.4727994,81.5578393 C51.4727994,80.6249303 50.7135535,79.8651549 49.7801151,79.8651549 C44.0349422,79.8651549 39.3613968,75.1916095 39.3613968,69.4464366 C39.3613968,63.7012637 44.0349422,59.0277183 49.7801151,59.0277183 C50.7135535,59.0277183 51.4727994,58.2684723 51.4727994,57.3360929 C51.4727994,56.4026545 50.7135535,55.6428791 49.7801151,55.6428791 C44.0349422,55.6428791 39.3613968,50.9693337 39.3613968,45.2246902 C39.3613968,39.4789879 44.0349422,34.8054425 49.7801151,34.8054425 C50.7135535,34.8054425 51.4727994,34.0461965 51.4727994,33.113817 C51.4727994,32.1803787 50.7135535,31.4206032 49.7801151,31.4206032 C44.0349422,31.4206032 39.3613968,26.7470578 39.3613968,21.0024144 C39.3613968,18.5923114 41.315105,16.6386032 43.724149,16.6386032 C46.134252,16.6386032 48.0874308,18.5923114 48.0874308,21.0024144 C48.0874308,21.9347938 48.8466767,22.6945693 49.7801151,22.6945693 C55.5247585,22.6945693 60.1988334,27.3681147 60.1988334,33.113817 C60.1988334,38.857931 55.5247585,43.5314764 49.7801151,43.5314764 C48.8466767,43.5314764 48.0874308,44.2912519 48.0874308,45.2246902 C48.0874308,46.1570697 48.8466767,46.9168451 49.7801151,46.9168451 C55.5247585,46.9168451 60.1988334,51.5903905 60.1988334,57.3360929 C60.1988334,63.0802069 55.5247585,67.7537523 49.7801151,67.7537523 C48.8466767,67.7537523 48.0874308,68.5135277 48.0874308,69.4464366 C48.0874308,70.3793455 48.8466767,71.1391209 49.7801151,71.1391209 C55.5247585,71.1391209 60.1988334,75.8126664 60.1988334,81.5578393 C60.1988334,87.3030122 55.5247585,91.9765576 49.7801151,91.9765576 C48.8466767,91.9765576 48.0874308,92.7358035 48.0874308,93.6687124 C48.0874308,94.6016214 48.8466767,95.3613968 49.7801151,95.3613968" id="Fill-1" transform="translate(49.780115, 66.418718) rotate(90.000000) translate(-49.780115, -66.418718) "></path>
            </g>
        </g>
    </g>
</svg>